# xmcd
#
# Track frame offsets: 
#        150
#        9347
#        26447
#        37728
#        54997
#        66537
#        77997
#        89960
#        102579
#        114701
#        125426
#        136131
#        149725
#        166338
#        177982
#        189532
#        201625
#        215641
#        225973
#        240650
#        254113
#        272638
#        285013
#        296554
#        306886
#
# Disc length: 4263 seconds
#
# Revision: 0
# Processed by: cddbd v1.5.2PL0 Copyright (c) Steve Scherf et al.
# Submitted via: ExactAudioCopyFreeDBPlugin 1.0
#
DISCID=7c10a519
DTITLE=B.B. King - Blue Shadows
DYEAR=1900
DGENRE=Blues
TTITLE0=Beautician Blues
TTITLE1=Blue Shadows
TTITLE2=Days Of Old
TTITLE3=The Worst Thing In My Life
TTITLE4=I Stay In The Mood
TTITLE5=Mean Ole Frisco
TTITLE6=You Know I Go For You
TTITLE7=Why Do Everything Happen To Me
TTITLE8=The Fool (A Fool Too Long)
TTITLE9=Treat Me Right (Oh Baby)
TTITLE10=I Can Hear My Name
TTITLE11=Partin' Time
TTITLE12=Walkin' Dr. Bill
TTITLE13=Someday
TTITLE14=Please Accept My Love
TTITLE15=You've Been An Angel
TTITLE16=Army Of The Lord
TTITLE17=Peace Of Mind
TTITLE18=(I've) Got A Right To Love My Baby
TTITLE19=Got 'em Bad
TTITLE20=My Sometime Baby
TTITLE21=Sugar Mama
TTITLE22=It's A Mean World
TTITLE23=Come By Here
TTITLE24=Gonna Miss You Around Here
EXTD=
EXTT0=
EXTT1=
EXTT2=
EXTT3=
EXTT4=
EXTT5=
EXTT6=
EXTT7=
EXTT8=
EXTT9=
EXTT10=
EXTT11=
EXTT12=
EXTT13=
EXTT14=
EXTT15=
EXTT16=
EXTT17=
EXTT18=
EXTT19=
EXTT20=
EXTT21=
EXTT22=
EXTT23=
EXTT24=
PLAYORDER=
